<svg xmlns="http://www.w3.org/2000/svg" width="219.01" height="35" viewBox="0 0 219.01 35"><rect class="svg__rect" x="0" y="0" width="108.92" height="35" fill="#31C4F3"/><rect class="svg__rect" x="106.92" y="0" width="112.08999999999999" height="35" fill="#389AD5"/><path class="svg__text" d="M16.25 14.66L13.61 14.66L13.61 13.47L20.38 13.47L20.38 14.66L17.72 14.66L17.72 22L16.25 22L16.25 14.66ZM29.72 22L24.14 22L24.14 13.47L29.67 13.47L29.67 14.66L25.62 14.66L25.62 17.02L29.12 17.02L29.12 18.19L25.62 18.19L25.62 20.82L29.72 20.82L29.72 22ZM39.27 22L33.91 22L33.91 13.47L35.39 13.47L35.39 20.82L39.27 20.82L39.27 22ZM48.97 22L43.39 22L43.39 13.47L48.93 13.47L48.93 14.66L44.87 14.66L44.87 17.02L48.38 17.02L48.38 18.19L44.87 18.19L44.87 20.82L48.97 20.82L48.97 22ZM52.92 18.13L52.92 18.13L52.92 17.46Q52.92 15.53 53.84 14.44Q54.77 13.35 56.43 13.35L56.43 13.35Q57.85 13.35 58.69 14.05Q59.53 14.76 59.70 16.08L59.70 16.08L58.24 16.08Q58.00 14.54 56.46 14.54L56.46 14.54Q55.46 14.54 54.94 15.26Q54.42 15.98 54.41 17.37L54.41 17.37L54.41 18.02Q54.41 19.40 54.99 20.17Q55.57 20.93 56.61 20.93L56.61 20.93Q57.75 20.93 58.23 20.42L58.23 20.42L58.23 18.75L56.47 18.75L56.47 17.62L59.70 17.62L59.70 20.89Q59.24 21.50 58.42 21.81Q57.60 22.12 56.56 22.12L56.56 22.12Q55.48 22.12 54.66 21.63Q53.83 21.14 53.38 20.24Q52.94 19.33 52.92 18.13ZM65.80 22L64.32 22L64.32 13.47L67.32 13.47Q68.80 13.47 69.60 14.13Q70.40 14.79 70.40 16.05L70.40 16.05Q70.40 16.90 69.99 17.48Q69.58 18.06 68.84 18.37L68.84 18.37L70.75 21.92L70.75 22L69.17 22L67.46 18.71L65.80 18.71L65.80 22ZM65.80 14.66L65.80 17.52L67.33 17.52Q68.08 17.52 68.50 17.15Q68.92 16.77 68.92 16.11L68.92 16.11Q68.92 15.43 68.53 15.05Q68.14 14.68 67.37 14.66L67.37 14.66L65.80 14.66ZM75.58 22L74.04 22L77.26 13.47L78.59 13.47L81.82 22L80.27 22L79.57 20.01L76.27 20.01L75.58 22ZM77.92 15.28L76.68 18.82L79.16 18.82L77.92 15.28ZM87.25 22L85.77 22L85.77 13.47L87.69 13.47L90.15 20.01L92.61 13.47L94.53 13.47L94.53 22L93.05 22L93.05 19.19L93.20 15.43L90.68 22L89.62 22L87.10 15.43L87.25 19.19L87.25 22Z" fill="#FFFFFF"/><path class="svg__text" d="M123.49 22L121.11 22L121.11 13.60L124.95 13.60Q126.09 13.60 126.93 13.98Q127.77 14.35 128.23 15.06Q128.68 15.76 128.68 16.71L128.68 16.71Q128.68 17.66 128.23 18.35Q127.77 19.05 126.93 19.42Q126.09 19.80 124.95 19.80L124.95 19.80L123.49 19.80L123.49 22ZM123.49 15.47L123.49 17.93L124.81 17.93Q125.54 17.93 125.91 17.61Q126.28 17.29 126.28 16.71L126.28 16.71Q126.28 16.12 125.91 15.80Q125.54 15.47 124.81 15.47L124.81 15.47L123.49 15.47ZM135.81 22L133.44 22L133.44 13.60L137.28 13.60Q138.42 13.60 139.26 13.98Q140.10 14.35 140.56 15.06Q141.01 15.76 141.01 16.71L141.01 16.71Q141.01 17.62 140.58 18.30Q140.16 18.98 139.37 19.36L139.37 19.36L141.18 22L138.63 22L137.11 19.77L135.81 19.77L135.81 22ZM135.81 15.47L135.81 17.93L137.13 17.93Q137.87 17.93 138.24 17.61Q138.61 17.29 138.61 16.71L138.61 16.71Q138.61 16.12 138.24 15.79Q137.87 15.47 137.13 15.47L137.13 15.47L135.81 15.47ZM145.37 17.80L145.37 17.80Q145.37 16.55 145.98 15.55Q146.58 14.56 147.64 14.00Q148.71 13.43 150.04 13.43L150.04 13.43Q151.37 13.43 152.43 14.00Q153.49 14.56 154.10 15.55Q154.71 16.55 154.71 17.80L154.71 17.80Q154.71 19.05 154.10 20.04Q153.49 21.04 152.43 21.60Q151.37 22.17 150.04 22.17L150.04 22.17Q148.71 22.17 147.64 21.60Q146.58 21.04 145.98 20.04Q145.37 19.05 145.37 17.80ZM147.77 17.80L147.77 17.80Q147.77 18.51 148.07 19.05Q148.37 19.60 148.89 19.90Q149.40 20.20 150.04 20.20L150.04 20.20Q150.67 20.20 151.19 19.90Q151.71 19.60 152.00 19.05Q152.30 18.51 152.30 17.80L152.30 17.80Q152.30 17.09 152.00 16.54Q151.71 16 151.19 15.70Q150.67 15.40 150.04 15.40L150.04 15.40Q149.40 15.40 148.88 15.70Q148.37 16 148.07 16.54Q147.77 17.09 147.77 17.80ZM159.01 17.80L159.01 17.80Q159.01 16.54 159.60 15.54Q160.20 14.55 161.27 13.99Q162.34 13.43 163.68 13.43L163.68 13.43Q164.86 13.43 165.80 13.83Q166.73 14.22 167.36 14.97L167.36 14.97L165.84 16.33Q165.00 15.40 163.82 15.40L163.82 15.40Q163.81 15.40 163.81 15.40L163.81 15.40Q162.73 15.40 162.06 16.06Q161.40 16.71 161.40 17.80L161.40 17.80Q161.40 18.50 161.70 19.04Q162.01 19.59 162.55 19.89Q163.08 20.20 163.78 20.20L163.78 20.20Q164.47 20.20 165.06 19.93L165.06 19.93L165.06 17.62L167.16 17.62L167.16 21.10Q166.44 21.61 165.51 21.89Q164.57 22.17 163.64 22.17L163.64 22.17Q162.32 22.17 161.26 21.61Q160.20 21.05 159.60 20.05Q159.01 19.06 159.01 17.80ZM174.53 22L172.15 22L172.15 13.60L176.00 13.60Q177.14 13.60 177.98 13.98Q178.82 14.35 179.27 15.06Q179.73 15.76 179.73 16.71L179.73 16.71Q179.73 17.62 179.30 18.30Q178.88 18.98 178.08 19.36L178.08 19.36L179.90 22L177.35 22L175.83 19.77L174.53 19.77L174.53 22ZM174.53 15.47L174.53 17.93L175.85 17.93Q176.58 17.93 176.96 17.61Q177.33 17.29 177.33 16.71L177.33 16.71Q177.33 16.12 176.96 15.79Q176.58 15.47 175.85 15.47L175.85 15.47L174.53 15.47ZM185.94 22L183.51 22L187.22 13.60L189.56 13.60L193.28 22L190.81 22L190.15 20.37L186.60 20.37L185.94 22ZM188.37 15.93L187.29 18.61L189.45 18.61L188.37 15.93ZM199.63 22L197.43 22L197.43 13.60L199.39 13.60L202.34 18.45L205.23 13.60L207.18 13.60L207.20 22L205.02 22L205.00 17.55L202.83 21.17L201.78 21.17L199.63 17.67L199.63 22Z" fill="#FFFFFF" x="119.92"/></svg>